# xmcd CD database file
#
# Track frame offsets:
#	150
#	16121
#	33096
#	50044
#	65736
#	81915
#	102591
#	116314
#	133636
#	151424
#	168224
#	184724
#	199912
#	216884
#	244637
#
# Disc length: 4620 seconds
#
# Revision: 0
# Processed by: cddbd v1.5.1PL0 Copyright (c) Steve Scherf et al.
# Submitted via: Feurio! 1.68 - http://www.feurio.com
#
DISCID=c9120a0f
DTITLE=Edwina De´Pooter - Auch wenn ich es mal Bereue
DYEAR=1900
DGENRE=
TTITLE0=Auch wenn ich es mal Bereue
TTITLE1=Frag mich mal wie es mir geht
TTITLE2=Kann wieder leben - Kann wieder Lieben
TTITLE3=So wie mit dir
TTITLE4=Einmal zum Himmel und Zurück
TTITLE5=Im Garten der Wahrheit (Duett mit Peter Sebastian)
TTITLE6=Was wäre wenn .... ?
TTITLE7=Das ahnst du nicht einmal
TTITLE8=Das Zauberwort heißt - Liebe
TTITLE9=Du empfindest nicht so wie ich
TTITLE10=Im Land der Träume
TTITLE11=Ich verlieb mich lieber nicht
TTITLE12=Rette mich - ich liebe dich
TTITLE13=Auch wenn ich es mal Bereue >Roger Hunt mix edit<
TTITLE14=Das Zauberwort heißt - Liebe
EXTD=
EXTT0=
EXTT1=
EXTT2=
EXTT3=
EXTT4=
EXTT5=
EXTT6=
EXTT7=
EXTT8=
EXTT9=
EXTT10=
EXTT11=
EXTT12=
EXTT13=
EXTT14=
PLAYORDER=
